<mxfile host="app.diagrams.net" agent="Mozilla/5.0 (Windows NT 10.0; Win64; x64) AppleWebKit/537.36 (KHTML, like Gecko) Chrome/134.0.0.0 Safari/537.36" version="26.1.0">
  <diagram id="F8WKbndC_n5BdhczXZju" name="Página-2">
    <mxGraphModel grid="1" page="1" gridSize="10" guides="1" tooltips="1" connect="1" arrows="1" fold="1" pageScale="1" pageWidth="827" pageHeight="1169" math="0" shadow="0">
      <root>
        <mxCell id="0" />
        <mxCell id="1" parent="0" />
        <mxCell id="z0hsGDC3lAoRzizT9Ce4-1" value="Usuario" style="rounded=0;whiteSpace=wrap;html=1;" vertex="1" parent="1">
          <mxGeometry x="-490" y="-230" width="120" height="60" as="geometry" />
        </mxCell>
        <mxCell id="z0hsGDC3lAoRzizT9Ce4-2" value="Producto" style="rounded=0;whiteSpace=wrap;html=1;" vertex="1" parent="1">
          <mxGeometry x="710" y="150" width="120" height="60" as="geometry" />
        </mxCell>
        <mxCell id="z0hsGDC3lAoRzizT9Ce4-3" value="Categoria" style="rounded=0;whiteSpace=wrap;html=1;" vertex="1" parent="1">
          <mxGeometry x="1130" y="150" width="120" height="60" as="geometry" />
        </mxCell>
        <mxCell id="z0hsGDC3lAoRzizT9Ce4-4" value="Carrito" style="rounded=0;whiteSpace=wrap;html=1;" vertex="1" parent="1">
          <mxGeometry x="-20" y="-130" width="120" height="60" as="geometry" />
        </mxCell>
        <mxCell id="z0hsGDC3lAoRzizT9Ce4-5" value="Detalle_carrito" style="rounded=0;whiteSpace=wrap;html=1;" vertex="1" parent="1">
          <mxGeometry x="500" y="-130" width="120" height="60" as="geometry" />
        </mxCell>
        <mxCell id="z0hsGDC3lAoRzizT9Ce4-6" value="Pedido" style="rounded=0;whiteSpace=wrap;html=1;" vertex="1" parent="1">
          <mxGeometry x="-490" y="150" width="120" height="60" as="geometry" />
        </mxCell>
        <mxCell id="z0hsGDC3lAoRzizT9Ce4-7" value="Detalle_pedido" style="rounded=0;whiteSpace=wrap;html=1;" vertex="1" parent="1">
          <mxGeometry x="-10" y="150" width="120" height="60" as="geometry" />
        </mxCell>
        <mxCell id="z0hsGDC3lAoRzizT9Ce4-8" value="Stock" style="rounded=0;whiteSpace=wrap;html=1;" vertex="1" parent="1">
          <mxGeometry x="710" y="460" width="120" height="60" as="geometry" />
        </mxCell>
        <mxCell id="z0hsGDC3lAoRzizT9Ce4-9" value="Administrador" style="rounded=0;whiteSpace=wrap;html=1;" vertex="1" parent="1">
          <mxGeometry y="260" width="120" height="60" as="geometry" />
        </mxCell>
        <mxCell id="z0hsGDC3lAoRzizT9Ce4-10" value="Nombre_usuario" style="ellipse;whiteSpace=wrap;html=1;" vertex="1" parent="1">
          <mxGeometry x="-560" y="-360" width="120" height="50" as="geometry" />
        </mxCell>
        <mxCell id="z0hsGDC3lAoRzizT9Ce4-11" value="Direccion" style="ellipse;whiteSpace=wrap;html=1;" vertex="1" parent="1">
          <mxGeometry x="-490" y="-450" width="120" height="50" as="geometry" />
        </mxCell>
        <mxCell id="z0hsGDC3lAoRzizT9Ce4-12" value="Codigo_postal" style="ellipse;whiteSpace=wrap;html=1;" vertex="1" parent="1">
          <mxGeometry x="-320" y="-380" width="120" height="50" as="geometry" />
        </mxCell>
        <mxCell id="z0hsGDC3lAoRzizT9Ce4-13" value="Ciudad" style="ellipse;whiteSpace=wrap;html=1;" vertex="1" parent="1">
          <mxGeometry x="-340" y="-440" width="120" height="50" as="geometry" />
        </mxCell>
        <mxCell id="z0hsGDC3lAoRzizT9Ce4-14" value="Id_usuario" style="ellipse;whiteSpace=wrap;html=1;" vertex="1" parent="1">
          <mxGeometry x="-710" y="-330" width="120" height="50" as="geometry" />
        </mxCell>
        <mxCell id="z0hsGDC3lAoRzizT9Ce4-15" value="Tipo_usuario" style="ellipse;whiteSpace=wrap;html=1;" vertex="1" parent="1">
          <mxGeometry x="-270" y="-235" width="120" height="50" as="geometry" />
        </mxCell>
        <mxCell id="z0hsGDC3lAoRzizT9Ce4-16" value="Nombre_completo" style="ellipse;whiteSpace=wrap;html=1;" vertex="1" parent="1">
          <mxGeometry x="-620" y="-140" width="120" height="50" as="geometry" />
        </mxCell>
        <mxCell id="z0hsGDC3lAoRzizT9Ce4-17" value="Teléfono" style="ellipse;whiteSpace=wrap;html=1;" vertex="1" parent="1">
          <mxGeometry x="-240" y="-320" width="120" height="50" as="geometry" />
        </mxCell>
        <mxCell id="z0hsGDC3lAoRzizT9Ce4-18" value="Contraseña" style="ellipse;whiteSpace=wrap;html=1;" vertex="1" parent="1">
          <mxGeometry x="-660" y="-240" width="120" height="60" as="geometry" />
        </mxCell>
        <mxCell id="z0hsGDC3lAoRzizT9Ce4-29" value="Id_usuario" style="ellipse;whiteSpace=wrap;html=1;" vertex="1" parent="1">
          <mxGeometry x="20" y="-290" width="120" height="50" as="geometry" />
        </mxCell>
        <mxCell id="z0hsGDC3lAoRzizT9Ce4-30" value="fecha_creación" style="ellipse;whiteSpace=wrap;html=1;" vertex="1" parent="1">
          <mxGeometry x="110" y="-230" width="120" height="50" as="geometry" />
        </mxCell>
        <mxCell id="z0hsGDC3lAoRzizT9Ce4-31" value="Estado" style="ellipse;whiteSpace=wrap;html=1;" vertex="1" parent="1">
          <mxGeometry x="-100" y="-230" width="120" height="50" as="geometry" />
        </mxCell>
        <mxCell id="z0hsGDC3lAoRzizT9Ce4-33" value="Id_usuario" style="ellipse;whiteSpace=wrap;html=1;" vertex="1" parent="1">
          <mxGeometry x="-570" y="310" width="120" height="50" as="geometry" />
        </mxCell>
        <mxCell id="z0hsGDC3lAoRzizT9Ce4-34" value="Fecha_pedido" style="ellipse;whiteSpace=wrap;html=1;" vertex="1" parent="1">
          <mxGeometry x="-680" y="120" width="120" height="60" as="geometry" />
        </mxCell>
        <mxCell id="z0hsGDC3lAoRzizT9Ce4-35" value="Total" style="ellipse;whiteSpace=wrap;html=1;" vertex="1" parent="1">
          <mxGeometry x="-640" y="40" width="120" height="50" as="geometry" />
        </mxCell>
        <mxCell id="z0hsGDC3lAoRzizT9Ce4-36" value="Estado" style="ellipse;whiteSpace=wrap;html=1;" vertex="1" parent="1">
          <mxGeometry x="-690" y="260" width="120" height="50" as="geometry" />
        </mxCell>
        <mxCell id="z0hsGDC3lAoRzizT9Ce4-37" value="Metodo_pago" style="ellipse;whiteSpace=wrap;html=1;" vertex="1" parent="1">
          <mxGeometry x="-690" y="190" width="120" height="60" as="geometry" />
        </mxCell>
        <mxCell id="z0hsGDC3lAoRzizT9Ce4-40" value="Realiza" style="rhombus;whiteSpace=wrap;html=1;" vertex="1" parent="1">
          <mxGeometry x="-470" y="-70" width="80" height="80" as="geometry" />
        </mxCell>
        <mxCell id="z0hsGDC3lAoRzizT9Ce4-42" value="" style="endArrow=classic;html=1;rounded=0;entryX=0.5;entryY=0;entryDx=0;entryDy=0;exitX=0.5;exitY=1;exitDx=0;exitDy=0;" edge="1" parent="1" source="z0hsGDC3lAoRzizT9Ce4-40" target="z0hsGDC3lAoRzizT9Ce4-6">
          <mxGeometry width="50" height="50" relative="1" as="geometry">
            <mxPoint x="-410" y="60" as="sourcePoint" />
            <mxPoint x="-360" y="10" as="targetPoint" />
          </mxGeometry>
        </mxCell>
        <mxCell id="z0hsGDC3lAoRzizT9Ce4-44" value="Tiene" style="rhombus;whiteSpace=wrap;html=1;" vertex="1" parent="1">
          <mxGeometry x="-240" y="-140" width="80" height="80" as="geometry" />
        </mxCell>
        <mxCell id="z0hsGDC3lAoRzizT9Ce4-45" value="" style="endArrow=classic;html=1;rounded=0;exitX=1;exitY=0.5;exitDx=0;exitDy=0;entryX=0;entryY=0.5;entryDx=0;entryDy=0;" edge="1" parent="1" source="z0hsGDC3lAoRzizT9Ce4-44" target="z0hsGDC3lAoRzizT9Ce4-4">
          <mxGeometry width="50" height="50" relative="1" as="geometry">
            <mxPoint x="-210" y="30" as="sourcePoint" />
            <mxPoint x="-160" y="-20" as="targetPoint" />
          </mxGeometry>
        </mxCell>
        <mxCell id="z0hsGDC3lAoRzizT9Ce4-48" value="Contiene" style="rhombus;whiteSpace=wrap;html=1;" vertex="1" parent="1">
          <mxGeometry x="260" y="-140" width="80" height="80" as="geometry" />
        </mxCell>
        <mxCell id="z0hsGDC3lAoRzizT9Ce4-50" value="" style="endArrow=classic;html=1;rounded=0;entryX=0;entryY=0.5;entryDx=0;entryDy=0;exitX=1;exitY=0.5;exitDx=0;exitDy=0;" edge="1" parent="1" source="z0hsGDC3lAoRzizT9Ce4-48" target="z0hsGDC3lAoRzizT9Ce4-5">
          <mxGeometry width="50" height="50" relative="1" as="geometry">
            <mxPoint x="130" y="-20" as="sourcePoint" />
            <mxPoint x="180" y="-70" as="targetPoint" />
          </mxGeometry>
        </mxCell>
        <mxCell id="z0hsGDC3lAoRzizT9Ce4-51" value="Contiene" style="rhombus;whiteSpace=wrap;html=1;" vertex="1" parent="1">
          <mxGeometry x="-240" y="140" width="80" height="80" as="geometry" />
        </mxCell>
        <mxCell id="z0hsGDC3lAoRzizT9Ce4-53" value="" style="endArrow=classic;html=1;rounded=0;exitX=1;exitY=0.5;exitDx=0;exitDy=0;entryX=0;entryY=0.5;entryDx=0;entryDy=0;" edge="1" parent="1" source="z0hsGDC3lAoRzizT9Ce4-51" target="z0hsGDC3lAoRzizT9Ce4-7">
          <mxGeometry width="50" height="50" relative="1" as="geometry">
            <mxPoint x="240" y="240" as="sourcePoint" />
            <mxPoint x="290" y="190" as="targetPoint" />
          </mxGeometry>
        </mxCell>
        <mxCell id="z0hsGDC3lAoRzizT9Ce4-54" value="Incluye" style="rhombus;whiteSpace=wrap;html=1;" vertex="1" parent="1">
          <mxGeometry x="350" y="140" width="80" height="80" as="geometry" />
        </mxCell>
        <mxCell id="z0hsGDC3lAoRzizT9Ce4-55" value="Asocia" style="rhombus;whiteSpace=wrap;html=1;" vertex="1" parent="1">
          <mxGeometry x="720" y="-150" width="100" height="100" as="geometry" />
        </mxCell>
        <mxCell id="z0hsGDC3lAoRzizT9Ce4-57" value="" style="endArrow=classic;html=1;rounded=0;exitX=1;exitY=0.5;exitDx=0;exitDy=0;entryX=0;entryY=0.5;entryDx=0;entryDy=0;" edge="1" parent="1" source="z0hsGDC3lAoRzizT9Ce4-54" target="z0hsGDC3lAoRzizT9Ce4-2">
          <mxGeometry width="50" height="50" relative="1" as="geometry">
            <mxPoint x="580" y="60" as="sourcePoint" />
            <mxPoint x="850" y="180" as="targetPoint" />
          </mxGeometry>
        </mxCell>
        <mxCell id="z0hsGDC3lAoRzizT9Ce4-59" value="" style="endArrow=classic;html=1;rounded=0;exitX=0.5;exitY=1;exitDx=0;exitDy=0;entryX=0.5;entryY=0;entryDx=0;entryDy=0;" edge="1" parent="1" source="z0hsGDC3lAoRzizT9Ce4-55" target="z0hsGDC3lAoRzizT9Ce4-2">
          <mxGeometry width="50" height="50" relative="1" as="geometry">
            <mxPoint x="580" y="60" as="sourcePoint" />
            <mxPoint x="750" y="130" as="targetPoint" />
          </mxGeometry>
        </mxCell>
        <mxCell id="z0hsGDC3lAoRzizT9Ce4-60" value="Pertenece a" style="rhombus;whiteSpace=wrap;html=1;" vertex="1" parent="1">
          <mxGeometry x="950" y="140" width="80" height="80" as="geometry" />
        </mxCell>
        <mxCell id="z0hsGDC3lAoRzizT9Ce4-61" value="Tiene" style="rhombus;whiteSpace=wrap;html=1;" vertex="1" parent="1">
          <mxGeometry x="730" y="310" width="80" height="80" as="geometry" />
        </mxCell>
        <mxCell id="z0hsGDC3lAoRzizT9Ce4-63" value="" style="endArrow=classic;html=1;rounded=0;exitX=1;exitY=0.5;exitDx=0;exitDy=0;" edge="1" parent="1" source="z0hsGDC3lAoRzizT9Ce4-60" target="z0hsGDC3lAoRzizT9Ce4-3">
          <mxGeometry width="50" height="50" relative="1" as="geometry">
            <mxPoint x="940" y="480" as="sourcePoint" />
            <mxPoint x="990" y="430" as="targetPoint" />
          </mxGeometry>
        </mxCell>
        <mxCell id="z0hsGDC3lAoRzizT9Ce4-65" value="" style="endArrow=classic;html=1;rounded=0;exitX=0.5;exitY=1;exitDx=0;exitDy=0;entryX=0.5;entryY=0;entryDx=0;entryDy=0;" edge="1" parent="1" source="z0hsGDC3lAoRzizT9Ce4-61" target="z0hsGDC3lAoRzizT9Ce4-8">
          <mxGeometry width="50" height="50" relative="1" as="geometry">
            <mxPoint x="940" y="480" as="sourcePoint" />
            <mxPoint x="990" y="430" as="targetPoint" />
          </mxGeometry>
        </mxCell>
        <mxCell id="z0hsGDC3lAoRzizT9Ce4-67" value="" style="endArrow=classic;html=1;rounded=0;exitX=0;exitY=0.5;exitDx=0;exitDy=0;entryX=0;entryY=0.5;entryDx=0;entryDy=0;" edge="1" parent="1" source="z0hsGDC3lAoRzizT9Ce4-9" target="z0hsGDC3lAoRzizT9Ce4-9">
          <mxGeometry width="50" height="50" relative="1" as="geometry">
            <mxPoint x="-10" y="230" as="sourcePoint" />
            <mxPoint x="40" y="180" as="targetPoint" />
          </mxGeometry>
        </mxCell>
        <mxCell id="z0hsGDC3lAoRzizT9Ce4-69" value="Supervisa" style="rhombus;whiteSpace=wrap;html=1;" vertex="1" parent="1">
          <mxGeometry x="-250" y="250" width="80" height="80" as="geometry" />
        </mxCell>
        <mxCell id="z0hsGDC3lAoRzizT9Ce4-74" value="" style="endArrow=classic;html=1;rounded=0;exitX=0;exitY=0.5;exitDx=0;exitDy=0;entryX=0.5;entryY=1;entryDx=0;entryDy=0;" edge="1" parent="1" source="z0hsGDC3lAoRzizT9Ce4-69" target="z0hsGDC3lAoRzizT9Ce4-6">
          <mxGeometry width="50" height="50" relative="1" as="geometry">
            <mxPoint x="-10" y="230" as="sourcePoint" />
            <mxPoint x="40" y="180" as="targetPoint" />
            <Array as="points">
              <mxPoint x="-310" y="290" />
              <mxPoint x="-310" y="240" />
              <mxPoint x="-430" y="240" />
            </Array>
          </mxGeometry>
        </mxCell>
        <mxCell id="z0hsGDC3lAoRzizT9Ce4-75" value="Gestiona" style="rhombus;whiteSpace=wrap;html=1;" vertex="1" parent="1">
          <mxGeometry x="360" y="250" width="80" height="80" as="geometry" />
        </mxCell>
        <mxCell id="z0hsGDC3lAoRzizT9Ce4-77" value="" style="endArrow=classic;html=1;rounded=0;exitX=1;exitY=0.5;exitDx=0;exitDy=0;entryX=0.25;entryY=1;entryDx=0;entryDy=0;" edge="1" parent="1" source="z0hsGDC3lAoRzizT9Ce4-75" target="z0hsGDC3lAoRzizT9Ce4-2">
          <mxGeometry relative="1" as="geometry">
            <mxPoint x="-40" y="210" as="sourcePoint" />
            <mxPoint x="60" y="210" as="targetPoint" />
            <Array as="points">
              <mxPoint x="740" y="290" />
            </Array>
          </mxGeometry>
        </mxCell>
        <mxCell id="z0hsGDC3lAoRzizT9Ce4-79" value="Id_detalle" style="ellipse;whiteSpace=wrap;html=1;" vertex="1" parent="1">
          <mxGeometry x="620" y="-310" width="120" height="50" as="geometry" />
        </mxCell>
        <mxCell id="z0hsGDC3lAoRzizT9Ce4-81" value="Id_producto" style="ellipse;whiteSpace=wrap;html=1;" vertex="1" parent="1">
          <mxGeometry x="310" y="-190" width="120" height="50" as="geometry" />
        </mxCell>
        <mxCell id="z0hsGDC3lAoRzizT9Ce4-82" value="Cantidad" style="ellipse;whiteSpace=wrap;html=1;" vertex="1" parent="1">
          <mxGeometry x="320" y="-260" width="120" height="50" as="geometry" />
        </mxCell>
        <mxCell id="z0hsGDC3lAoRzizT9Ce4-83" value="Subtotal" style="ellipse;whiteSpace=wrap;html=1;" vertex="1" parent="1">
          <mxGeometry x="490" y="-280" width="120" height="50" as="geometry" />
        </mxCell>
        <mxCell id="z0hsGDC3lAoRzizT9Ce4-85" value="Talla" style="ellipse;whiteSpace=wrap;html=1;" vertex="1" parent="1">
          <mxGeometry x="400" y="-330" width="120" height="50" as="geometry" />
        </mxCell>
        <mxCell id="z0hsGDC3lAoRzizT9Ce4-86" value="Color" style="ellipse;whiteSpace=wrap;html=1;" vertex="1" parent="1">
          <mxGeometry x="670" y="-250" width="120" height="50" as="geometry" />
        </mxCell>
        <mxCell id="z0hsGDC3lAoRzizT9Ce4-91" value="Id_pedido" style="ellipse;whiteSpace=wrap;html=1;" vertex="1" parent="1">
          <mxGeometry x="160" y="30" width="120" height="50" as="geometry" />
        </mxCell>
        <mxCell id="z0hsGDC3lAoRzizT9Ce4-92" value="Cantidad" style="ellipse;whiteSpace=wrap;html=1;" vertex="1" parent="1">
          <mxGeometry x="70" y="-20" width="120" height="50" as="geometry" />
        </mxCell>
        <mxCell id="z0hsGDC3lAoRzizT9Ce4-93" value="Talla" style="ellipse;whiteSpace=wrap;html=1;" vertex="1" parent="1">
          <mxGeometry x="-150" y="90" width="120" height="50" as="geometry" />
        </mxCell>
        <mxCell id="z0hsGDC3lAoRzizT9Ce4-94" value="Subtotal" style="ellipse;whiteSpace=wrap;html=1;" vertex="1" parent="1">
          <mxGeometry x="-60" y="-10" width="120" height="50" as="geometry" />
        </mxCell>
        <mxCell id="z0hsGDC3lAoRzizT9Ce4-95" value="Color" style="ellipse;whiteSpace=wrap;html=1;" vertex="1" parent="1">
          <mxGeometry x="-110" y="40" width="120" height="50" as="geometry" />
        </mxCell>
        <mxCell id="z0hsGDC3lAoRzizT9Ce4-96" style="edgeStyle=orthogonalEdgeStyle;rounded=0;orthogonalLoop=1;jettySize=auto;html=1;exitX=0.5;exitY=1;exitDx=0;exitDy=0;" edge="1" parent="1" source="z0hsGDC3lAoRzizT9Ce4-95" target="z0hsGDC3lAoRzizT9Ce4-95">
          <mxGeometry relative="1" as="geometry" />
        </mxCell>
        <mxCell id="z0hsGDC3lAoRzizT9Ce4-98" value="Producto" style="ellipse;whiteSpace=wrap;html=1;" vertex="1" parent="1">
          <mxGeometry x="900" y="90" width="120" height="45" as="geometry" />
        </mxCell>
        <mxCell id="z0hsGDC3lAoRzizT9Ce4-99" value="Nombre" style="ellipse;whiteSpace=wrap;html=1;" vertex="1" parent="1">
          <mxGeometry x="810" y="-30" width="120" height="50" as="geometry" />
        </mxCell>
        <mxCell id="4t6waxiLViag2Xm85rEl-38" style="edgeStyle=orthogonalEdgeStyle;rounded=0;orthogonalLoop=1;jettySize=auto;html=1;exitX=1;exitY=0.5;exitDx=0;exitDy=0;" edge="1" parent="1" source="z0hsGDC3lAoRzizT9Ce4-100">
          <mxGeometry relative="1" as="geometry">
            <mxPoint x="590" y="115.14285714285711" as="targetPoint" />
          </mxGeometry>
        </mxCell>
        <mxCell id="z0hsGDC3lAoRzizT9Ce4-100" value="Descripción" style="ellipse;whiteSpace=wrap;html=1;" vertex="1" parent="1">
          <mxGeometry x="470" y="90" width="120" height="50" as="geometry" />
        </mxCell>
        <mxCell id="z0hsGDC3lAoRzizT9Ce4-101" value="Precio" style="ellipse;whiteSpace=wrap;html=1;" vertex="1" parent="1">
          <mxGeometry x="520" y="30" width="120" height="50" as="geometry" />
        </mxCell>
        <mxCell id="z0hsGDC3lAoRzizT9Ce4-102" value="Categoría" style="ellipse;whiteSpace=wrap;html=1;" vertex="1" parent="1">
          <mxGeometry x="880" y="30" width="120" height="50" as="geometry" />
        </mxCell>
        <mxCell id="z0hsGDC3lAoRzizT9Ce4-103" value="Stock_disponible" style="ellipse;whiteSpace=wrap;html=1;" vertex="1" parent="1">
          <mxGeometry x="620" y="-20" width="120" height="50" as="geometry" />
        </mxCell>
        <mxCell id="z0hsGDC3lAoRzizT9Ce4-109" value="nombre_categoría" style="ellipse;whiteSpace=wrap;html=1;" vertex="1" parent="1">
          <mxGeometry x="1320" y="140" width="120" height="50" as="geometry" />
        </mxCell>
        <mxCell id="z0hsGDC3lAoRzizT9Ce4-110" value="Id_stock" style="ellipse;whiteSpace=wrap;html=1;" vertex="1" parent="1">
          <mxGeometry x="910" y="620" width="120" height="50" as="geometry" />
        </mxCell>
        <mxCell id="z0hsGDC3lAoRzizT9Ce4-111" value="Id_producto" style="ellipse;whiteSpace=wrap;html=1;" vertex="1" parent="1">
          <mxGeometry x="750" y="660" width="120" height="50" as="geometry" />
        </mxCell>
        <mxCell id="z0hsGDC3lAoRzizT9Ce4-113" value="Talla" style="ellipse;whiteSpace=wrap;html=1;" vertex="1" parent="1">
          <mxGeometry x="620" y="640" width="120" height="50" as="geometry" />
        </mxCell>
        <mxCell id="z0hsGDC3lAoRzizT9Ce4-114" value="Color" style="ellipse;whiteSpace=wrap;html=1;" vertex="1" parent="1">
          <mxGeometry x="520" y="570" width="120" height="50" as="geometry" />
        </mxCell>
        <mxCell id="z0hsGDC3lAoRzizT9Ce4-115" value="Cantidad_disponible" style="ellipse;whiteSpace=wrap;html=1;" vertex="1" parent="1">
          <mxGeometry x="470" y="490" width="120" height="50" as="geometry" />
        </mxCell>
        <mxCell id="z0hsGDC3lAoRzizT9Ce4-117" value="Id_admin" style="ellipse;whiteSpace=wrap;html=1;" vertex="1" parent="1">
          <mxGeometry x="100" y="390" width="120" height="50" as="geometry" />
        </mxCell>
        <mxCell id="z0hsGDC3lAoRzizT9Ce4-118" value="Id_usuario" style="ellipse;whiteSpace=wrap;html=1;" vertex="1" parent="1">
          <mxGeometry x="-70" y="390" width="120" height="50" as="geometry" />
        </mxCell>
        <mxCell id="z0hsGDC3lAoRzizT9Ce4-158" value="1..N" style="text;html=1;align=center;verticalAlign=middle;whiteSpace=wrap;rounded=0;" vertex="1" parent="1">
          <mxGeometry x="-300" y="270" width="60" height="25" as="geometry" />
        </mxCell>
        <mxCell id="z0hsGDC3lAoRzizT9Ce4-159" value="1" style="text;html=1;align=center;verticalAlign=middle;whiteSpace=wrap;rounded=0;" vertex="1" parent="1">
          <mxGeometry x="-420" y="-160" width="60" height="20" as="geometry" />
        </mxCell>
        <mxCell id="z0hsGDC3lAoRzizT9Ce4-160" value="1" style="text;html=1;align=center;verticalAlign=middle;whiteSpace=wrap;rounded=0;" vertex="1" parent="1">
          <mxGeometry x="-170" y="-120" width="50" height="20" as="geometry" />
        </mxCell>
        <mxCell id="z0hsGDC3lAoRzizT9Ce4-161" value="1" style="text;html=1;align=center;verticalAlign=middle;whiteSpace=wrap;rounded=0;" vertex="1" parent="1">
          <mxGeometry x="110" y="270" width="60" height="30" as="geometry" />
        </mxCell>
        <mxCell id="z0hsGDC3lAoRzizT9Ce4-162" value="1..N" style="text;html=1;align=center;verticalAlign=middle;whiteSpace=wrap;rounded=0;" vertex="1" parent="1">
          <mxGeometry x="690" y="225" width="60" height="20" as="geometry" />
        </mxCell>
        <mxCell id="z0hsGDC3lAoRzizT9Ce4-163" value="1..N" style="text;html=1;align=center;verticalAlign=middle;whiteSpace=wrap;rounded=0;" vertex="1" parent="1">
          <mxGeometry x="-70" y="155" width="60" height="25" as="geometry" />
        </mxCell>
        <mxCell id="z0hsGDC3lAoRzizT9Ce4-164" value="1" style="text;html=1;align=center;verticalAlign=middle;whiteSpace=wrap;rounded=0;" vertex="1" parent="1">
          <mxGeometry x="-390" y="155" width="60" height="25" as="geometry" />
        </mxCell>
        <mxCell id="z0hsGDC3lAoRzizT9Ce4-165" value="1..N" style="text;html=1;align=center;verticalAlign=middle;whiteSpace=wrap;rounded=0;" vertex="1" parent="1">
          <mxGeometry x="-473" y="115" width="60" height="25" as="geometry" />
        </mxCell>
        <mxCell id="z0hsGDC3lAoRzizT9Ce4-166" value="1" style="text;html=1;align=center;verticalAlign=middle;whiteSpace=wrap;rounded=0;" vertex="1" parent="1">
          <mxGeometry x="-470" y="-100" width="60" height="25" as="geometry" />
        </mxCell>
        <mxCell id="z0hsGDC3lAoRzizT9Ce4-167" value="0..N" style="text;html=1;align=center;verticalAlign=middle;whiteSpace=wrap;rounded=0;" vertex="1" parent="1">
          <mxGeometry x="760" y="-50" width="60" height="25" as="geometry" />
        </mxCell>
        <mxCell id="z0hsGDC3lAoRzizT9Ce4-168" value="1" style="text;html=1;align=center;verticalAlign=middle;whiteSpace=wrap;rounded=0;" vertex="1" parent="1">
          <mxGeometry x="90" y="-120" width="60" height="25" as="geometry" />
        </mxCell>
        <mxCell id="z0hsGDC3lAoRzizT9Ce4-170" value="1" style="text;html=1;align=center;verticalAlign=middle;whiteSpace=wrap;rounded=0;" vertex="1" parent="1">
          <mxGeometry x="-60" y="270" width="60" height="25" as="geometry" />
        </mxCell>
        <mxCell id="4t6waxiLViag2Xm85rEl-1" value="" style="endArrow=none;html=1;rounded=0;entryX=1;entryY=0.5;entryDx=0;entryDy=0;" edge="1" parent="1" target="z0hsGDC3lAoRzizT9Ce4-93">
          <mxGeometry width="50" height="50" relative="1" as="geometry">
            <mxPoint x="25" y="150" as="sourcePoint" />
            <mxPoint x="75" y="100" as="targetPoint" />
          </mxGeometry>
        </mxCell>
        <mxCell id="4t6waxiLViag2Xm85rEl-2" value="" style="endArrow=none;html=1;rounded=0;exitX=1;exitY=0.5;exitDx=0;exitDy=0;entryX=0;entryY=0.5;entryDx=0;entryDy=0;" edge="1" parent="1" source="z0hsGDC3lAoRzizT9Ce4-1" target="z0hsGDC3lAoRzizT9Ce4-17">
          <mxGeometry width="50" height="50" relative="1" as="geometry">
            <mxPoint x="-360" y="-185" as="sourcePoint" />
            <mxPoint x="-310" y="-235" as="targetPoint" />
          </mxGeometry>
        </mxCell>
        <mxCell id="4t6waxiLViag2Xm85rEl-3" value="" style="endArrow=none;html=1;rounded=0;entryX=0;entryY=0.5;entryDx=0;entryDy=0;exitX=1;exitY=0.5;exitDx=0;exitDy=0;" edge="1" parent="1" source="z0hsGDC3lAoRzizT9Ce4-18" target="z0hsGDC3lAoRzizT9Ce4-1">
          <mxGeometry width="50" height="50" relative="1" as="geometry">
            <mxPoint x="-655" y="-140" as="sourcePoint" />
            <mxPoint x="-605" y="-190" as="targetPoint" />
          </mxGeometry>
        </mxCell>
        <mxCell id="4t6waxiLViag2Xm85rEl-4" value="" style="endArrow=none;html=1;rounded=0;exitX=1;exitY=0.5;exitDx=0;exitDy=0;" edge="1" parent="1" source="z0hsGDC3lAoRzizT9Ce4-14">
          <mxGeometry width="50" height="50" relative="1" as="geometry">
            <mxPoint x="-540" y="-170" as="sourcePoint" />
            <mxPoint x="-490" y="-220" as="targetPoint" />
          </mxGeometry>
        </mxCell>
        <mxCell id="4t6waxiLViag2Xm85rEl-5" value="" style="endArrow=none;html=1;rounded=0;entryX=0;entryY=0.5;entryDx=0;entryDy=0;" edge="1" parent="1" target="z0hsGDC3lAoRzizT9Ce4-13">
          <mxGeometry width="50" height="50" relative="1" as="geometry">
            <mxPoint x="-400" y="-230" as="sourcePoint" />
            <mxPoint x="-350" y="-280" as="targetPoint" />
          </mxGeometry>
        </mxCell>
        <mxCell id="4t6waxiLViag2Xm85rEl-10" value="" style="endArrow=none;html=1;rounded=0;entryX=0;entryY=1;entryDx=0;entryDy=0;exitX=0.75;exitY=0;exitDx=0;exitDy=0;exitPerimeter=0;" edge="1" parent="1" source="z0hsGDC3lAoRzizT9Ce4-16" target="z0hsGDC3lAoRzizT9Ce4-1">
          <mxGeometry width="50" height="50" relative="1" as="geometry">
            <mxPoint x="-570" y="-140" as="sourcePoint" />
            <mxPoint x="-520" y="-190" as="targetPoint" />
          </mxGeometry>
        </mxCell>
        <mxCell id="4t6waxiLViag2Xm85rEl-11" value="" style="endArrow=none;html=1;rounded=0;entryX=0.342;entryY=0.98;entryDx=0;entryDy=0;entryPerimeter=0;exitX=1;exitY=0;exitDx=0;exitDy=0;" edge="1" parent="1" source="z0hsGDC3lAoRzizT9Ce4-1" target="z0hsGDC3lAoRzizT9Ce4-12">
          <mxGeometry width="50" height="50" relative="1" as="geometry">
            <mxPoint x="-370" y="-190" as="sourcePoint" />
            <mxPoint x="-320" y="-240" as="targetPoint" />
          </mxGeometry>
        </mxCell>
        <mxCell id="4t6waxiLViag2Xm85rEl-12" value="" style="endArrow=none;html=1;rounded=0;entryX=0.5;entryY=1;entryDx=0;entryDy=0;" edge="1" parent="1" target="z0hsGDC3lAoRzizT9Ce4-11">
          <mxGeometry width="50" height="50" relative="1" as="geometry">
            <mxPoint x="-420" y="-230" as="sourcePoint" />
            <mxPoint x="-370" y="-280" as="targetPoint" />
          </mxGeometry>
        </mxCell>
        <mxCell id="4t6waxiLViag2Xm85rEl-13" value="" style="endArrow=none;html=1;rounded=0;entryX=0.608;entryY=1.08;entryDx=0;entryDy=0;entryPerimeter=0;" edge="1" parent="1" target="z0hsGDC3lAoRzizT9Ce4-10">
          <mxGeometry width="50" height="50" relative="1" as="geometry">
            <mxPoint x="-473" y="-230" as="sourcePoint" />
            <mxPoint x="-423" y="-280" as="targetPoint" />
          </mxGeometry>
        </mxCell>
        <mxCell id="4t6waxiLViag2Xm85rEl-16" value="" style="endArrow=none;html=1;rounded=0;exitX=0.333;exitY=0.983;exitDx=0;exitDy=0;exitPerimeter=0;entryX=0.5;entryY=0;entryDx=0;entryDy=0;" edge="1" parent="1" source="z0hsGDC3lAoRzizT9Ce4-6" target="z0hsGDC3lAoRzizT9Ce4-33">
          <mxGeometry width="50" height="50" relative="1" as="geometry">
            <mxPoint x="-170" y="130" as="sourcePoint" />
            <mxPoint x="-120" y="80" as="targetPoint" />
          </mxGeometry>
        </mxCell>
        <mxCell id="4t6waxiLViag2Xm85rEl-18" value="" style="endArrow=none;html=1;rounded=0;entryX=0;entryY=1;entryDx=0;entryDy=0;exitX=1;exitY=0.5;exitDx=0;exitDy=0;" edge="1" parent="1" source="z0hsGDC3lAoRzizT9Ce4-36" target="z0hsGDC3lAoRzizT9Ce4-6">
          <mxGeometry width="50" height="50" relative="1" as="geometry">
            <mxPoint x="-300" y="180" as="sourcePoint" />
            <mxPoint x="-250" y="130" as="targetPoint" />
          </mxGeometry>
        </mxCell>
        <mxCell id="4t6waxiLViag2Xm85rEl-19" value="" style="endArrow=none;html=1;rounded=0;exitX=1;exitY=0.5;exitDx=0;exitDy=0;" edge="1" parent="1" source="z0hsGDC3lAoRzizT9Ce4-37">
          <mxGeometry width="50" height="50" relative="1" as="geometry">
            <mxPoint x="-540" y="240" as="sourcePoint" />
            <mxPoint x="-490" y="190" as="targetPoint" />
          </mxGeometry>
        </mxCell>
        <mxCell id="4t6waxiLViag2Xm85rEl-20" value="" style="endArrow=none;html=1;rounded=0;exitX=1;exitY=0.5;exitDx=0;exitDy=0;" edge="1" parent="1" source="z0hsGDC3lAoRzizT9Ce4-34">
          <mxGeometry width="50" height="50" relative="1" as="geometry">
            <mxPoint x="-540" y="230" as="sourcePoint" />
            <mxPoint x="-490" y="180" as="targetPoint" />
          </mxGeometry>
        </mxCell>
        <mxCell id="4t6waxiLViag2Xm85rEl-21" value="" style="endArrow=none;html=1;rounded=0;exitX=1;exitY=0.5;exitDx=0;exitDy=0;" edge="1" parent="1" source="z0hsGDC3lAoRzizT9Ce4-35">
          <mxGeometry width="50" height="50" relative="1" as="geometry">
            <mxPoint x="-540" y="220" as="sourcePoint" />
            <mxPoint x="-490" y="170" as="targetPoint" />
          </mxGeometry>
        </mxCell>
        <mxCell id="4t6waxiLViag2Xm85rEl-22" value="" style="endArrow=none;html=1;rounded=0;entryX=0.39;entryY=0.019;entryDx=0;entryDy=0;entryPerimeter=0;exitX=1;exitY=0.5;exitDx=0;exitDy=0;" edge="1" parent="1" source="z0hsGDC3lAoRzizT9Ce4-95" target="z0hsGDC3lAoRzizT9Ce4-7">
          <mxGeometry width="50" height="50" relative="1" as="geometry">
            <mxPoint x="-170" y="130" as="sourcePoint" />
            <mxPoint x="-120" y="80" as="targetPoint" />
          </mxGeometry>
        </mxCell>
        <mxCell id="4t6waxiLViag2Xm85rEl-25" value="" style="endArrow=none;html=1;rounded=0;exitX=0.85;exitY=0;exitDx=0;exitDy=0;exitPerimeter=0;entryX=0;entryY=0.5;entryDx=0;entryDy=0;" edge="1" parent="1" source="z0hsGDC3lAoRzizT9Ce4-7" target="z0hsGDC3lAoRzizT9Ce4-91">
          <mxGeometry width="50" height="50" relative="1" as="geometry">
            <mxPoint x="-170" y="130" as="sourcePoint" />
            <mxPoint x="-120" y="80" as="targetPoint" />
          </mxGeometry>
        </mxCell>
        <mxCell id="4t6waxiLViag2Xm85rEl-26" value="" style="endArrow=none;html=1;rounded=0;exitX=0.75;exitY=0;exitDx=0;exitDy=0;entryX=0;entryY=1;entryDx=0;entryDy=0;" edge="1" parent="1" source="z0hsGDC3lAoRzizT9Ce4-7" target="z0hsGDC3lAoRzizT9Ce4-92">
          <mxGeometry width="50" height="50" relative="1" as="geometry">
            <mxPoint x="-170" y="130" as="sourcePoint" />
            <mxPoint x="-120" y="80" as="targetPoint" />
          </mxGeometry>
        </mxCell>
        <mxCell id="4t6waxiLViag2Xm85rEl-27" value="" style="endArrow=none;html=1;rounded=0;exitX=0.5;exitY=0;exitDx=0;exitDy=0;entryX=1;entryY=1;entryDx=0;entryDy=0;" edge="1" parent="1" source="z0hsGDC3lAoRzizT9Ce4-7" target="z0hsGDC3lAoRzizT9Ce4-94">
          <mxGeometry width="50" height="50" relative="1" as="geometry">
            <mxPoint x="-170" y="130" as="sourcePoint" />
            <mxPoint x="-120" y="80" as="targetPoint" />
          </mxGeometry>
        </mxCell>
        <mxCell id="4t6waxiLViag2Xm85rEl-29" value="" style="endArrow=none;html=1;rounded=0;exitX=0.5;exitY=0;exitDx=0;exitDy=0;entryX=0.75;entryY=1;entryDx=0;entryDy=0;" edge="1" parent="1" source="z0hsGDC3lAoRzizT9Ce4-117" target="z0hsGDC3lAoRzizT9Ce4-9">
          <mxGeometry width="50" height="50" relative="1" as="geometry">
            <mxPoint x="40" y="380" as="sourcePoint" />
            <mxPoint x="90" y="330" as="targetPoint" />
          </mxGeometry>
        </mxCell>
        <mxCell id="4t6waxiLViag2Xm85rEl-30" value="" style="endArrow=none;html=1;rounded=0;exitX=0.5;exitY=0;exitDx=0;exitDy=0;entryX=0.25;entryY=1;entryDx=0;entryDy=0;" edge="1" parent="1" source="z0hsGDC3lAoRzizT9Ce4-118" target="z0hsGDC3lAoRzizT9Ce4-9">
          <mxGeometry width="50" height="50" relative="1" as="geometry">
            <mxPoint x="40" y="380" as="sourcePoint" />
            <mxPoint x="90" y="330" as="targetPoint" />
          </mxGeometry>
        </mxCell>
        <mxCell id="4t6waxiLViag2Xm85rEl-32" value="" style="endArrow=none;html=1;rounded=0;exitX=1.01;exitY=0.171;exitDx=0;exitDy=0;exitPerimeter=0;entryX=0;entryY=0.5;entryDx=0;entryDy=0;" edge="1" parent="1" source="z0hsGDC3lAoRzizT9Ce4-2" target="z0hsGDC3lAoRzizT9Ce4-98">
          <mxGeometry width="50" height="50" relative="1" as="geometry">
            <mxPoint x="580" y="120" as="sourcePoint" />
            <mxPoint x="630" y="70" as="targetPoint" />
          </mxGeometry>
        </mxCell>
        <mxCell id="4t6waxiLViag2Xm85rEl-33" value="" style="endArrow=none;html=1;rounded=0;exitX=1;exitY=0;exitDx=0;exitDy=0;entryX=0;entryY=0.5;entryDx=0;entryDy=0;" edge="1" parent="1" source="z0hsGDC3lAoRzizT9Ce4-2" target="z0hsGDC3lAoRzizT9Ce4-102">
          <mxGeometry width="50" height="50" relative="1" as="geometry">
            <mxPoint x="580" y="120" as="sourcePoint" />
            <mxPoint x="630" y="70" as="targetPoint" />
          </mxGeometry>
        </mxCell>
        <mxCell id="4t6waxiLViag2Xm85rEl-34" value="" style="endArrow=none;html=1;rounded=0;exitX=0.75;exitY=0;exitDx=0;exitDy=0;entryX=0;entryY=1;entryDx=0;entryDy=0;" edge="1" parent="1" source="z0hsGDC3lAoRzizT9Ce4-2" target="z0hsGDC3lAoRzizT9Ce4-99">
          <mxGeometry width="50" height="50" relative="1" as="geometry">
            <mxPoint x="580" y="120" as="sourcePoint" />
            <mxPoint x="630" y="70" as="targetPoint" />
          </mxGeometry>
        </mxCell>
        <mxCell id="4t6waxiLViag2Xm85rEl-35" value="" style="endArrow=none;html=1;rounded=0;exitX=0.25;exitY=0;exitDx=0;exitDy=0;entryX=0.5;entryY=1;entryDx=0;entryDy=0;" edge="1" parent="1" source="z0hsGDC3lAoRzizT9Ce4-2" target="z0hsGDC3lAoRzizT9Ce4-103">
          <mxGeometry width="50" height="50" relative="1" as="geometry">
            <mxPoint x="580" y="120" as="sourcePoint" />
            <mxPoint x="630" y="70" as="targetPoint" />
          </mxGeometry>
        </mxCell>
        <mxCell id="4t6waxiLViag2Xm85rEl-36" value="" style="endArrow=none;html=1;rounded=0;exitX=0;exitY=0;exitDx=0;exitDy=0;entryX=1;entryY=0.5;entryDx=0;entryDy=0;" edge="1" parent="1" source="z0hsGDC3lAoRzizT9Ce4-2" target="z0hsGDC3lAoRzizT9Ce4-101">
          <mxGeometry width="50" height="50" relative="1" as="geometry">
            <mxPoint x="580" y="120" as="sourcePoint" />
            <mxPoint x="630" y="70" as="targetPoint" />
          </mxGeometry>
        </mxCell>
        <mxCell id="4t6waxiLViag2Xm85rEl-37" value="" style="endArrow=none;html=1;rounded=0;exitX=0;exitY=0.25;exitDx=0;exitDy=0;entryX=1.019;entryY=0.583;entryDx=0;entryDy=0;entryPerimeter=0;" edge="1" parent="1" source="z0hsGDC3lAoRzizT9Ce4-2" target="z0hsGDC3lAoRzizT9Ce4-100">
          <mxGeometry width="50" height="50" relative="1" as="geometry">
            <mxPoint x="580" y="120" as="sourcePoint" />
            <mxPoint x="630" y="70" as="targetPoint" />
          </mxGeometry>
        </mxCell>
        <mxCell id="4t6waxiLViag2Xm85rEl-40" value="" style="endArrow=none;html=1;rounded=0;exitX=1;exitY=0.25;exitDx=0;exitDy=0;entryX=0;entryY=0.5;entryDx=0;entryDy=0;" edge="1" parent="1" source="z0hsGDC3lAoRzizT9Ce4-3" target="z0hsGDC3lAoRzizT9Ce4-109">
          <mxGeometry width="50" height="50" relative="1" as="geometry">
            <mxPoint x="1140" y="260" as="sourcePoint" />
            <mxPoint x="1190" y="210" as="targetPoint" />
          </mxGeometry>
        </mxCell>
        <mxCell id="4t6waxiLViag2Xm85rEl-41" value="" style="endArrow=none;html=1;rounded=0;entryX=0.75;entryY=1;entryDx=0;entryDy=0;exitX=0.5;exitY=0;exitDx=0;exitDy=0;" edge="1" parent="1" source="z0hsGDC3lAoRzizT9Ce4-110" target="z0hsGDC3lAoRzizT9Ce4-8">
          <mxGeometry width="50" height="50" relative="1" as="geometry">
            <mxPoint x="700" y="620" as="sourcePoint" />
            <mxPoint x="750" y="570" as="targetPoint" />
          </mxGeometry>
        </mxCell>
        <mxCell id="4t6waxiLViag2Xm85rEl-42" value="" style="endArrow=none;html=1;rounded=0;entryX=0.5;entryY=1;entryDx=0;entryDy=0;exitX=0.5;exitY=0;exitDx=0;exitDy=0;" edge="1" parent="1" source="z0hsGDC3lAoRzizT9Ce4-111" target="z0hsGDC3lAoRzizT9Ce4-8">
          <mxGeometry width="50" height="50" relative="1" as="geometry">
            <mxPoint x="700" y="620" as="sourcePoint" />
            <mxPoint x="750" y="570" as="targetPoint" />
          </mxGeometry>
        </mxCell>
        <mxCell id="4t6waxiLViag2Xm85rEl-43" value="" style="endArrow=none;html=1;rounded=0;entryX=0.25;entryY=1;entryDx=0;entryDy=0;exitX=0.5;exitY=0;exitDx=0;exitDy=0;" edge="1" parent="1" source="z0hsGDC3lAoRzizT9Ce4-113" target="z0hsGDC3lAoRzizT9Ce4-8">
          <mxGeometry width="50" height="50" relative="1" as="geometry">
            <mxPoint x="700" y="620" as="sourcePoint" />
            <mxPoint x="750" y="570" as="targetPoint" />
          </mxGeometry>
        </mxCell>
        <mxCell id="4t6waxiLViag2Xm85rEl-44" value="" style="endArrow=none;html=1;rounded=0;entryX=0;entryY=1;entryDx=0;entryDy=0;exitX=1;exitY=0.5;exitDx=0;exitDy=0;" edge="1" parent="1" source="z0hsGDC3lAoRzizT9Ce4-114" target="z0hsGDC3lAoRzizT9Ce4-8">
          <mxGeometry width="50" height="50" relative="1" as="geometry">
            <mxPoint x="700" y="620" as="sourcePoint" />
            <mxPoint x="750" y="570" as="targetPoint" />
          </mxGeometry>
        </mxCell>
        <mxCell id="4t6waxiLViag2Xm85rEl-45" value="" style="endArrow=none;html=1;rounded=0;entryX=0;entryY=0.5;entryDx=0;entryDy=0;exitX=1;exitY=0.5;exitDx=0;exitDy=0;" edge="1" parent="1" source="z0hsGDC3lAoRzizT9Ce4-115" target="z0hsGDC3lAoRzizT9Ce4-8">
          <mxGeometry width="50" height="50" relative="1" as="geometry">
            <mxPoint x="700" y="620" as="sourcePoint" />
            <mxPoint x="750" y="570" as="targetPoint" />
          </mxGeometry>
        </mxCell>
        <mxCell id="4t6waxiLViag2Xm85rEl-46" value="" style="endArrow=none;html=1;rounded=0;exitX=1;exitY=0;exitDx=0;exitDy=0;entryX=0;entryY=1;entryDx=0;entryDy=0;" edge="1" parent="1" source="z0hsGDC3lAoRzizT9Ce4-4" target="z0hsGDC3lAoRzizT9Ce4-30">
          <mxGeometry width="50" height="50" relative="1" as="geometry">
            <mxPoint x="110" y="-170" as="sourcePoint" />
            <mxPoint x="160" y="-220" as="targetPoint" />
          </mxGeometry>
        </mxCell>
        <mxCell id="4t6waxiLViag2Xm85rEl-47" value="" style="endArrow=none;html=1;rounded=0;exitX=0.75;exitY=0;exitDx=0;exitDy=0;entryX=0;entryY=1;entryDx=0;entryDy=0;" edge="1" parent="1" source="z0hsGDC3lAoRzizT9Ce4-4" target="z0hsGDC3lAoRzizT9Ce4-29">
          <mxGeometry width="50" height="50" relative="1" as="geometry">
            <mxPoint x="110" y="-170" as="sourcePoint" />
            <mxPoint x="160" y="-220" as="targetPoint" />
          </mxGeometry>
        </mxCell>
        <mxCell id="4t6waxiLViag2Xm85rEl-49" value="" style="endArrow=none;html=1;rounded=0;exitX=0.25;exitY=0;exitDx=0;exitDy=0;entryX=1;entryY=1;entryDx=0;entryDy=0;" edge="1" parent="1" source="z0hsGDC3lAoRzizT9Ce4-4" target="z0hsGDC3lAoRzizT9Ce4-31">
          <mxGeometry width="50" height="50" relative="1" as="geometry">
            <mxPoint x="110" y="-170" as="sourcePoint" />
            <mxPoint x="160" y="-220" as="targetPoint" />
          </mxGeometry>
        </mxCell>
        <mxCell id="4t6waxiLViag2Xm85rEl-50" value="" style="endArrow=none;html=1;rounded=0;exitX=1;exitY=0.25;exitDx=0;exitDy=0;entryX=0.002;entryY=0.577;entryDx=0;entryDy=0;entryPerimeter=0;" edge="1" parent="1" source="z0hsGDC3lAoRzizT9Ce4-5" target="z0hsGDC3lAoRzizT9Ce4-86">
          <mxGeometry width="50" height="50" relative="1" as="geometry">
            <mxPoint x="440" y="-130" as="sourcePoint" />
            <mxPoint x="490" y="-180" as="targetPoint" />
          </mxGeometry>
        </mxCell>
        <mxCell id="4t6waxiLViag2Xm85rEl-51" value="" style="endArrow=none;html=1;rounded=0;exitX=1;exitY=0;exitDx=0;exitDy=0;entryX=0;entryY=1;entryDx=0;entryDy=0;" edge="1" parent="1" source="z0hsGDC3lAoRzizT9Ce4-5" target="z0hsGDC3lAoRzizT9Ce4-79">
          <mxGeometry width="50" height="50" relative="1" as="geometry">
            <mxPoint x="440" y="-130" as="sourcePoint" />
            <mxPoint x="490" y="-180" as="targetPoint" />
          </mxGeometry>
        </mxCell>
        <mxCell id="4t6waxiLViag2Xm85rEl-53" value="" style="endArrow=none;html=1;rounded=0;exitX=0.5;exitY=0;exitDx=0;exitDy=0;entryX=0.5;entryY=1;entryDx=0;entryDy=0;" edge="1" parent="1" source="z0hsGDC3lAoRzizT9Ce4-5" target="z0hsGDC3lAoRzizT9Ce4-83">
          <mxGeometry width="50" height="50" relative="1" as="geometry">
            <mxPoint x="440" y="-130" as="sourcePoint" />
            <mxPoint x="490" y="-180" as="targetPoint" />
          </mxGeometry>
        </mxCell>
        <mxCell id="4t6waxiLViag2Xm85rEl-54" value="" style="endArrow=none;html=1;rounded=0;exitX=0.25;exitY=0;exitDx=0;exitDy=0;entryX=0.5;entryY=1;entryDx=0;entryDy=0;" edge="1" parent="1" source="z0hsGDC3lAoRzizT9Ce4-5" target="z0hsGDC3lAoRzizT9Ce4-85">
          <mxGeometry width="50" height="50" relative="1" as="geometry">
            <mxPoint x="440" y="-130" as="sourcePoint" />
            <mxPoint x="490" y="-180" as="targetPoint" />
          </mxGeometry>
        </mxCell>
        <mxCell id="4t6waxiLViag2Xm85rEl-55" value="" style="endArrow=none;html=1;rounded=0;exitX=0;exitY=0;exitDx=0;exitDy=0;entryX=1;entryY=0.5;entryDx=0;entryDy=0;" edge="1" parent="1" source="z0hsGDC3lAoRzizT9Ce4-5" target="z0hsGDC3lAoRzizT9Ce4-82">
          <mxGeometry width="50" height="50" relative="1" as="geometry">
            <mxPoint x="440" y="-130" as="sourcePoint" />
            <mxPoint x="490" y="-180" as="targetPoint" />
          </mxGeometry>
        </mxCell>
        <mxCell id="4t6waxiLViag2Xm85rEl-56" value="" style="endArrow=none;html=1;rounded=0;exitX=0;exitY=0.25;exitDx=0;exitDy=0;entryX=1;entryY=0.5;entryDx=0;entryDy=0;" edge="1" parent="1" source="z0hsGDC3lAoRzizT9Ce4-5" target="z0hsGDC3lAoRzizT9Ce4-81">
          <mxGeometry width="50" height="50" relative="1" as="geometry">
            <mxPoint x="440" y="-130" as="sourcePoint" />
            <mxPoint x="490" y="-180" as="targetPoint" />
          </mxGeometry>
        </mxCell>
        <mxCell id="4t6waxiLViag2Xm85rEl-57" value="" style="endArrow=none;html=1;rounded=0;entryX=0;entryY=0.5;entryDx=0;entryDy=0;exitX=1;exitY=0.5;exitDx=0;exitDy=0;" edge="1" parent="1" source="z0hsGDC3lAoRzizT9Ce4-69" target="z0hsGDC3lAoRzizT9Ce4-9">
          <mxGeometry width="50" height="50" relative="1" as="geometry">
            <mxPoint x="-80" y="420" as="sourcePoint" />
            <mxPoint x="-30" y="370" as="targetPoint" />
          </mxGeometry>
        </mxCell>
        <mxCell id="4t6waxiLViag2Xm85rEl-58" value="" style="endArrow=none;html=1;rounded=0;exitX=1;exitY=0.5;exitDx=0;exitDy=0;entryX=0;entryY=0.5;entryDx=0;entryDy=0;" edge="1" parent="1" source="z0hsGDC3lAoRzizT9Ce4-9" target="z0hsGDC3lAoRzizT9Ce4-75">
          <mxGeometry width="50" height="50" relative="1" as="geometry">
            <mxPoint x="390" y="320" as="sourcePoint" />
            <mxPoint x="440" y="270" as="targetPoint" />
          </mxGeometry>
        </mxCell>
        <mxCell id="4t6waxiLViag2Xm85rEl-59" value="" style="endArrow=none;html=1;rounded=0;exitX=1;exitY=0.5;exitDx=0;exitDy=0;entryX=0;entryY=0.5;entryDx=0;entryDy=0;" edge="1" parent="1" source="z0hsGDC3lAoRzizT9Ce4-7" target="z0hsGDC3lAoRzizT9Ce4-54">
          <mxGeometry width="50" height="50" relative="1" as="geometry">
            <mxPoint x="430" y="240" as="sourcePoint" />
            <mxPoint x="480" y="190" as="targetPoint" />
          </mxGeometry>
        </mxCell>
        <mxCell id="4t6waxiLViag2Xm85rEl-60" value="" style="endArrow=none;html=1;rounded=0;exitX=1;exitY=0.5;exitDx=0;exitDy=0;entryX=0;entryY=0.5;entryDx=0;entryDy=0;" edge="1" parent="1" source="z0hsGDC3lAoRzizT9Ce4-6" target="z0hsGDC3lAoRzizT9Ce4-51">
          <mxGeometry width="50" height="50" relative="1" as="geometry">
            <mxPoint x="-50" y="190" as="sourcePoint" />
            <mxPoint y="140" as="targetPoint" />
          </mxGeometry>
        </mxCell>
        <mxCell id="4t6waxiLViag2Xm85rEl-61" value="" style="endArrow=none;html=1;rounded=0;entryX=0.5;entryY=1;entryDx=0;entryDy=0;exitX=0.5;exitY=0;exitDx=0;exitDy=0;" edge="1" parent="1" source="z0hsGDC3lAoRzizT9Ce4-40" target="z0hsGDC3lAoRzizT9Ce4-1">
          <mxGeometry width="50" height="50" relative="1" as="geometry">
            <mxPoint x="-160" y="100" as="sourcePoint" />
            <mxPoint x="-110" y="50" as="targetPoint" />
          </mxGeometry>
        </mxCell>
        <mxCell id="4t6waxiLViag2Xm85rEl-62" value="" style="endArrow=none;html=1;rounded=0;entryX=0.89;entryY=1;entryDx=0;entryDy=0;entryPerimeter=0;exitX=0;exitY=0.5;exitDx=0;exitDy=0;" edge="1" parent="1" source="z0hsGDC3lAoRzizT9Ce4-44" target="z0hsGDC3lAoRzizT9Ce4-1">
          <mxGeometry width="50" height="50" relative="1" as="geometry">
            <mxPoint x="-70" y="30" as="sourcePoint" />
            <mxPoint x="-20" y="-20" as="targetPoint" />
            <Array as="points">
              <mxPoint x="-383" y="-100" />
            </Array>
          </mxGeometry>
        </mxCell>
        <mxCell id="4t6waxiLViag2Xm85rEl-63" value="" style="endArrow=none;html=1;rounded=0;exitX=1;exitY=0.5;exitDx=0;exitDy=0;" edge="1" parent="1" source="z0hsGDC3lAoRzizT9Ce4-4" target="z0hsGDC3lAoRzizT9Ce4-48">
          <mxGeometry width="50" height="50" relative="1" as="geometry">
            <mxPoint x="170" y="-80" as="sourcePoint" />
            <mxPoint x="310" y="-60" as="targetPoint" />
          </mxGeometry>
        </mxCell>
        <mxCell id="4t6waxiLViag2Xm85rEl-64" value="" style="endArrow=none;html=1;rounded=0;entryX=0.5;entryY=1;entryDx=0;entryDy=0;exitX=0.5;exitY=0;exitDx=0;exitDy=0;" edge="1" parent="1" source="z0hsGDC3lAoRzizT9Ce4-61" target="z0hsGDC3lAoRzizT9Ce4-2">
          <mxGeometry width="50" height="50" relative="1" as="geometry">
            <mxPoint x="450" y="270" as="sourcePoint" />
            <mxPoint x="500" y="220" as="targetPoint" />
          </mxGeometry>
        </mxCell>
        <mxCell id="4t6waxiLViag2Xm85rEl-65" value="" style="endArrow=none;html=1;rounded=0;exitX=0;exitY=0.5;exitDx=0;exitDy=0;" edge="1" parent="1" source="z0hsGDC3lAoRzizT9Ce4-60">
          <mxGeometry width="50" height="50" relative="1" as="geometry">
            <mxPoint x="450" y="270" as="sourcePoint" />
            <mxPoint x="833" y="180" as="targetPoint" />
          </mxGeometry>
        </mxCell>
        <mxCell id="4t6waxiLViag2Xm85rEl-66" value="" style="endArrow=none;html=1;rounded=0;entryX=1;entryY=0.5;entryDx=0;entryDy=0;exitX=0;exitY=0.5;exitDx=0;exitDy=0;" edge="1" parent="1" source="z0hsGDC3lAoRzizT9Ce4-55" target="z0hsGDC3lAoRzizT9Ce4-5">
          <mxGeometry width="50" height="50" relative="1" as="geometry">
            <mxPoint x="430" y="250" as="sourcePoint" />
            <mxPoint x="480" y="200" as="targetPoint" />
          </mxGeometry>
        </mxCell>
        <mxCell id="TEkQgeP76vSSgYfq0vHk-1" value="" style="endArrow=none;html=1;rounded=0;exitX=1;exitY=0.75;exitDx=0;exitDy=0;entryX=0;entryY=0.5;entryDx=0;entryDy=0;" edge="1" parent="1" source="z0hsGDC3lAoRzizT9Ce4-1" target="z0hsGDC3lAoRzizT9Ce4-15">
          <mxGeometry width="50" height="50" relative="1" as="geometry">
            <mxPoint x="-90" y="-30" as="sourcePoint" />
            <mxPoint x="-40" y="-80" as="targetPoint" />
          </mxGeometry>
        </mxCell>
      </root>
    </mxGraphModel>
  </diagram>
</mxfile>
